<svg xmlns="http://www.w3.org/2000/svg" viewBox="0 0 200 290"><path d="M100 25 V278" stroke="#e1cfeb" stroke-width="2" stroke-dasharray="3 7"/><g transform="translate(100 252)"><circle r="22.0" fill="#c66a80" opacity=".17"/><circle r="12.0" fill="none" stroke="#c66a80" stroke-width="2"/><path d="M0 -17 L5 -5 L17 0 L5 5 L0 17 L-5 5 L-17 0 L-5 -5 Z" fill="none" stroke="#c66a80" stroke-width="1.4"/><circle r="3" fill="#c66a80"/></g><g transform="translate(100 220)"><circle r="21.2" fill="#e6a447" opacity=".17"/><circle r="11.7" fill="none" stroke="#e6a447" stroke-width="2"/><path d="M0 -17 L5 -5 L17 0 L5 5 L0 17 L-5 5 L-17 0 L-5 -5 Z" fill="none" stroke="#e6a447" stroke-width="1.4"/><circle r="3" fill="#e6a447"/></g><g transform="translate(100 188)"><circle r="20.4" fill="#e8ca5c" opacity=".17"/><circle r="11.4" fill="none" stroke="#e8ca5c" stroke-width="2"/><path d="M0 -17 L5 -5 L17 0 L5 5 L0 17 L-5 5 L-17 0 L-5 -5 Z" fill="none" stroke="#e8ca5c" stroke-width="1.4"/><circle r="3" fill="#e8ca5c"/></g><g transform="translate(100 156)"><circle r="19.6" fill="#8dbda2" opacity=".17"/><circle r="11.1" fill="none" stroke="#8dbda2" stroke-width="2"/><path d="M0 -17 L5 -5 L17 0 L5 5 L0 17 L-5 5 L-17 0 L-5 -5 Z" fill="none" stroke="#8dbda2" stroke-width="1.4"/><circle r="3" fill="#8dbda2"/></g><g transform="translate(100 124)"><circle r="18.8" fill="#80b9cf" opacity=".17"/><circle r="10.8" fill="none" stroke="#80b9cf" stroke-width="2"/><path d="M0 -17 L5 -5 L17 0 L5 5 L0 17 L-5 5 L-17 0 L-5 -5 Z" fill="none" stroke="#80b9cf" stroke-width="1.4"/><circle r="3" fill="#80b9cf"/></g><g transform="translate(100 92)"><circle r="18.0" fill="#778cc7" opacity=".17"/><circle r="10.5" fill="none" stroke="#778cc7" stroke-width="2"/><path d="M0 -17 L5 -5 L17 0 L5 5 L0 17 L-5 5 L-17 0 L-5 -5 Z" fill="none" stroke="#778cc7" stroke-width="1.4"/><circle r="3" fill="#778cc7"/></g><g transform="translate(100 60)"><circle r="17.2" fill="#ae87ce" opacity=".17"/><circle r="10.2" fill="none" stroke="#ae87ce" stroke-width="2"/><path d="M0 -17 L5 -5 L17 0 L5 5 L0 17 L-5 5 L-17 0 L-5 -5 Z" fill="none" stroke="#ae87ce" stroke-width="1.4"/><circle r="3" fill="#ae87ce"/></g></svg>